<?xml version="1.0" encoding="utf-8"?>
<!-- Generator: Adobe Illustrator 24.3.0, SVG Export Plug-In . SVG Version: 6.00 Build 0)  -->
<svg version="1.1" id="Layer_1" xmlns="http://www.w3.org/2000/svg" xmlns:xlink="http://www.w3.org/1999/xlink" x="0px" y="0px"
	 viewBox="0 0 197 87" style="enable-background:new 0 0 197 87;" xml:space="preserve">
<g>
	<path style="fill:#D2F200;" d="M122.7,0l-11.5,34.3l1.2,7.1h-1L100.2,7.5C98.6,3.1,94.3,0,89.4,0h-7.3c-4.9,0-9.3,3.1-10.8,7.6
		L58.8,45c0,0,11.1-8.8,27.7-8.8v-2l-8.5-3.5l6.7-20.1l-1.2-7.2h1l11.3,34c1.5,4.5,5.9,7.6,10.8,7.6h7.3c4.9,0,9.3-3.1,10.8-7.6
		L137.1,0H122.7z"/>
	<path style="fill:#FFFFFF;" d="M0,66h4.1l0.7,3.2c0.5-1.1,1.3-2,2.3-2.6c1-0.7,2.3-0.9,3.7-0.9c1.4,0,2.7,0.3,3.8,0.7
		c1,0.6,1.8,1.3,2.3,2.3c0.6,1,0.8,2.2,0.8,3.7v7.9H13V73c0-0.8-0.2-1.6-0.5-2.2c-0.3-0.6-0.8-1-1.4-1.4c-0.6-0.3-1.3-0.5-2.2-0.5
		c-0.8,0-1.5,0.2-2.2,0.5c-0.6,0.4-1,0.8-1.4,1.5C5,71.5,4.8,72.2,4.8,73v7.1H0V66z"/>
	<path style="fill:#FFFFFF;" d="M22.7,80.1c-0.9-0.4-1.7-0.7-2.3-1.4c-0.6-0.6-0.8-1.3-0.8-2.2c0-0.8,0.3-1.6,0.9-2.2
		c0.7-0.7,1.5-1.2,2.7-1.7s2.6-0.7,4.3-0.9l4.6-0.5c0.4,0,0.7-0.1,0.8-0.3c0.2-0.2,0.3-0.4,0.3-0.6c0-0.3-0.2-0.6-0.6-0.8
		c-0.4-0.3-0.8-0.5-1.4-0.6c-0.7,0-1.3-0.1-2-0.1c-0.8,0-1.8,0.1-2.6,0.3c-0.9,0.2-1.7,0.5-2.3,0.8c-0.7,0.4-1.2,0.7-1.6,1.1l-2.7-2
		c0.5-0.7,1.2-1.2,2.2-1.8c0.9-0.6,2.1-0.9,3.4-1.2c1.3-0.3,2.5-0.5,3.8-0.5c1.6,0,3.1,0.2,4.4,0.7c1.3,0.5,2.3,1,3.1,1.9
		c0.8,0.8,1.1,1.8,1.1,2.9v5.2c0,0.3,0.1,0.6,0.3,0.7c0.2,0.2,0.5,0.3,0.8,0.3c0.3,0,0.6-0.1,0.8-0.2c0.3-0.1,0.5-0.3,0.7-0.5L42,79
		c-0.5,0.5-1,0.7-1.8,1c-0.8,0.3-1.6,0.4-2.4,0.4c-1.1,0-2.1-0.3-2.9-0.8c-0.8-0.6-1.2-1.3-1.3-2.2l-0.1-0.3
		c-0.4,0.7-0.9,1.2-1.7,1.7c-0.8,0.5-1.6,0.8-2.5,1.1c-0.9,0.3-2,0.4-3.1,0.4C24.8,80.5,23.7,80.4,22.7,80.1z M30.4,77.1
		c0.8-0.3,1.5-0.7,2-1.1s0.8-1,0.8-1.7v-0.6l-4.6,0.5c-1.4,0.1-2.4,0.3-3.1,0.6c-0.7,0.3-1,0.7-1,1.3c0,0.5,0.3,0.8,0.8,1.1
		c0.6,0.3,1.3,0.4,2.3,0.4C28.7,77.4,29.6,77.4,30.4,77.1z"/>
	<path style="fill:#FFFFFF;" d="M38.7,66h5.1l4.8,10.7L53.4,66h5.1l-6.9,14.1h-6L38.7,66z"/>
	<path style="fill:#FFFFFF;" d="M59.8,68c0-1.3,0.9-2.2,2.3-2.2c1.3,0,2.2,0.9,2.2,2.2c0,1.3-0.9,2.2-2.2,2.2
		C60.7,70.1,59.8,69.2,59.8,68z M64,68c0-1.1-0.8-2-2-2c-1.1,0-2,0.8-2,2c0,1.1,0.8,2,2,2C63.2,70,64,69.1,64,68z M61,66.5h1.2
		c0.6,0,0.9,0.4,0.9,0.8c0,0.3-0.2,0.5-0.4,0.7c0.2,0,0.3,0.2,0.3,0.4v1.1h-0.5v-0.9c0-0.2-0.1-0.3-0.3-0.3h-0.9v1.2H61V66.5z
		 M62.1,67.8c0.4,0,0.7-0.2,0.7-0.5c0-0.3-0.3-0.5-0.7-0.5h-0.7v0.9H62.1z"/>
	<path style="fill:#FFFFFF;" d="M70.4,72.9c0,1.2,0.3,2.3,0.9,3.4c0.7,1,1.5,1.8,2.6,2.2c1.1,0.6,2.3,0.8,3.8,0.8
		c1.5,0,2.9-0.4,4.2-1c1.2-0.7,2.1-1.6,2.5-2.7l1.3,0.4c-0.3,0.9-0.9,1.8-1.7,2.4c-0.8,0.7-1.8,1.3-2.9,1.7
		c-1.1,0.4-2.3,0.6-3.6,0.6c-1.7,0-3.2-0.4-4.5-1c-1.3-0.7-2.3-1.6-3.1-2.8c-0.8-1.2-1.1-2.5-1.1-4c0-1.5,0.4-2.8,1.1-4
		c0.8-1.2,1.8-2.2,3.1-2.8c1.4-0.5,2.9-0.8,4.6-0.8c1.2,0,2.4,0.2,3.6,0.6c1.1,0.4,2.1,0.9,2.9,1.7c0.8,0.7,1.4,1.5,1.7,2.4
		l-1.4,0.5c-0.5-1.1-1.3-2.1-2.5-2.7c-1.2-0.7-2.6-1-4.2-1c-1.4,0-2.6,0.3-3.8,0.8c-1.1,0.6-2,1.3-2.6,2.2
		C70.7,70.5,70.4,71.6,70.4,72.9z"/>
	<path style="fill:#FFFFFF;" d="M91.6,80.3c-1-0.3-1.8-0.7-2.3-1.4c-0.6-0.6-0.8-1.3-0.8-2.2c0-0.8,0.3-1.6,0.8-2.2
		c0.6-0.7,1.4-1.1,2.5-1.6c1.1-0.5,2.7-0.7,4.7-0.9l6.4-0.6c0.3,0,0.6-0.1,0.7-0.3c0.2-0.2,0.3-0.4,0.3-0.7c0-0.8-0.3-1.5-0.8-2.2
		c-0.6-0.6-1.2-1-2.2-1.4c-0.9-0.3-2-0.5-3.2-0.5c-1.1,0-2.3,0.2-3.3,0.5c-1,0.3-2,0.7-2.6,1.3c-0.8,0.6-1.2,1.2-1.5,1.9l-1.1-0.7
		c0.3-0.7,0.9-1.5,1.8-2.2c0.8-0.7,1.9-1.2,3-1.6c1.2-0.4,2.4-0.6,3.8-0.6c1.4,0,2.7,0.2,3.8,0.7c1.1,0.5,2.1,1,2.7,1.9
		c0.7,0.8,0.9,1.8,0.9,3v7.1c0,0.5,0.1,0.9,0.4,1.2c0.3,0.3,0.7,0.5,1,0.5c0.4,0,0.8-0.1,1-0.3c0.4-0.2,0.6-0.5,0.8-0.7l0.8,0.9
		c-0.3,0.5-0.7,0.7-1.2,1c-0.6,0.3-1.1,0.4-1.7,0.4c-0.8,0-1.5-0.3-2-0.8c-0.5-0.6-0.8-1.2-0.8-2.1v-0.9c-0.4,0.7-1,1.4-1.9,2.1
		c-0.8,0.6-1.8,1-3,1.4c-1.1,0.3-2.3,0.5-3.6,0.5S92.6,80.6,91.6,80.3z M99.7,78.7c1.2-0.5,2.3-1.1,2.9-2.1c0.8-0.8,1-1.9,1.1-2.9
		v-1.1l-7.3,0.7c-2.3,0.2-3.9,0.7-5,1.2s-1.5,1.3-1.5,2.2c0,0.9,0.5,1.6,1.4,2.1c0.9,0.5,2.3,0.7,4,0.7C97,79.3,98.4,79.1,99.7,78.7
		z"/>
	<path style="fill:#FFFFFF;" d="M111.1,65.7h1.3l0.1,3.1c0.5-1.1,1.3-2.1,2.3-2.7c1.1-0.7,2.3-0.9,3.8-0.9c1.7,0,3.1,0.4,4.2,1.2
		c1.1,0.7,1.9,1.9,2.3,3.3c0.4-1.3,1.2-2.4,2.4-3.2c1.2-0.8,2.6-1.2,4.3-1.2c1.4,0,2.6,0.3,3.8,0.8c1,0.6,1.9,1.4,2.5,2.4
		c0.6,1,0.9,2.3,0.9,3.8v8h-1.4v-8c0-1.2-0.3-2.2-0.8-3.2c-0.5-0.8-1.1-1.5-2.1-2c-0.8-0.5-1.9-0.7-3-0.7c-1.2,0-2.3,0.2-3.2,0.7
		c-0.9,0.5-1.7,1.1-2.2,2c-0.5,0.8-0.8,2-0.8,3.2v7.9h-1.4v-7.9c0-1.2-0.3-2.3-0.8-3.2c-0.5-0.8-1.1-1.5-2-2c-0.8-0.5-1.9-0.7-3-0.7
		c-1.1,0-2.2,0.3-3.1,0.7c-0.9,0.5-1.7,1.2-2.2,2.1c-0.5,0.9-0.8,2-0.8,3.3v7.6h-1.4V65.7H111.1z"/>
	<path style="fill:#FFFFFF;" d="M142.6,65.7h1.3l0.1,3.7c0.7-1.3,1.6-2.2,3.1-3c1.4-0.7,3.1-1.1,5-1.1c1.8,0,3.4,0.4,4.8,1
		c1.4,0.7,2.5,1.6,3.3,2.8c0.8,1.2,1.2,2.5,1.2,4c0,1.5-0.4,2.8-1.2,4c-0.8,1.2-1.9,2.2-3.3,2.8c-1.4,0.7-3,1-4.8,1
		c-1.9,0-3.6-0.4-5-1.1c-1.4-0.7-2.4-1.8-3-3V87h-1.4L142.6,65.7L142.6,65.7z M156,78.5c1.2-0.6,2.2-1.3,2.8-2.2
		c0.7-0.9,1-2.1,1-3.3c0-1.2-0.4-2.3-1-3.3c-0.7-0.9-1.6-1.7-2.8-2.2c-1.2-0.6-2.5-0.8-4-0.8s-2.8,0.3-4,0.8s-2.2,1.3-2.8,2.2
		c-0.7,0.9-1,2.1-1,3.4c0,1.3,0.4,2.3,1,3.3c0.7,0.9,1.6,1.7,2.8,2.2s2.5,0.8,4,0.8C153.4,79.3,154.8,79,156,78.5z"/>
	<path style="fill:#FFFFFF;" d="M185,65.7h1.3l0.1,2.9c0.5-1.1,1.1-2,2.1-2.5c0.9-0.7,2-0.9,3.1-0.9c0.9,0,1.8,0.2,2.5,0.6
		c0.8,0.4,1.4,0.9,2,1.6c0.6,0.7,0.8,1.4,0.9,2.2l-1.3,0.5c-0.1-1-0.6-1.9-1.4-2.5c-0.8-0.7-1.8-1-2.9-1c-0.9,0-1.8,0.3-2.5,0.7
		c-0.8,0.6-1.3,1.3-1.8,2.2c-0.5,0.9-0.7,2.1-0.7,3.3v7.5H185V65.7z"/>
	<path style="fill:#FFFFFF;" d="M178.6,78.4c-1.5,0.6-3.1,0.9-4.8,0.9c-1.5,0-2.9-0.3-4.1-0.7c-1.2-0.5-2.3-1.2-3-2.1
		c-0.8-0.9-1.2-1.9-1.3-3.1h16.3c0-0.1,0-0.2,0-0.3s0-0.2,0-0.3c0-1.5-0.4-2.8-1.1-4c-0.8-1.2-1.8-2.1-3.1-2.8c-1.3-0.7-2.8-1-4.5-1
		c-1.8,0-3.3,0.4-4.7,1c-1.4,0.7-2.4,1.6-3.2,2.8c-0.8,1.2-1.1,2.5-1.1,4c0,1.5,0.4,2.8,1.2,4c0.8,1.2,2,2.2,3.5,2.8
		c1.5,0.7,3.2,1,5.1,1s3.8-0.4,5.4-1c0.8-0.3,1.4-0.7,2-1l-0.8-1.1C179.9,77.8,179.3,78.1,178.6,78.4z M166.6,69.1
		c0.7-0.8,1.6-1.5,2.6-2c1.1-0.5,2.3-0.7,3.7-0.7c1.3,0,2.4,0.2,3.6,0.7c1.1,0.5,2,1.1,2.6,2c0.7,0.8,1,1.9,1.1,2.9h-14.8
		C165.6,71,165.9,70,166.6,69.1z"/>
</g>
</svg>
