<svg width="545" height="61" viewBox="0 0 545 61" fill="none" xmlns="http://www.w3.org/2000/svg">
<path d="M0 2.84482H11.4245L13.242 11.6379C14.5403 8.53447 16.8771 6.20688 19.7332 4.39654C22.5893 2.5862 25.9647 1.81033 29.8595 1.81033C33.7542 1.81033 37.3892 2.5862 40.2454 3.8793C43.1015 5.43102 45.1787 7.49999 46.7365 10.3448C48.2944 13.1896 49.0734 16.5517 49.0734 20.431V42.1552H35.8314V21.9827C35.8314 19.6552 35.3121 17.5862 34.5331 16.0345C33.7542 14.4827 32.4559 13.1896 30.6384 12.1552C29.0805 11.3793 27.0033 10.8621 24.6665 10.8621C22.5893 10.8621 20.5121 11.3793 18.6946 12.1552C17.1367 13.1896 15.8385 14.4827 14.7999 16.2931C13.7613 17.8448 13.242 19.9138 13.242 22.2414V41.8965H0V2.84482Z" fill="#072B31"/>
<path d="M62.8347 41.6379C60.2382 40.6034 58.161 39.569 56.6031 37.7586C55.0453 36.2069 54.526 34.1379 54.526 31.8103C54.526 29.4827 55.3049 27.4138 57.1224 25.6034C58.94 23.7931 61.2768 22.2414 64.6522 20.9483C68.0276 19.6552 71.9224 18.8793 76.596 18.3621L89.3187 17.069C90.3573 17.069 91.1363 16.8103 91.6556 16.2931C92.1749 15.7758 92.4345 15.2586 92.4345 14.7414C92.4345 13.9655 91.9152 13.1896 90.8766 12.4138C89.838 11.6379 88.5398 11.1207 86.9819 10.8621C85.1644 10.8621 83.3468 10.6034 81.5293 10.6034C79.1925 10.6034 76.596 10.8621 74.2592 11.3793C71.6627 11.8965 69.5855 12.6724 67.768 13.7069C65.9505 14.7414 64.3926 15.7759 63.354 16.8103L55.8242 11.3793C57.1224 9.56895 59.1996 8.01723 61.7961 6.46551C64.3926 4.91378 67.5083 3.8793 71.1434 3.10344C74.7785 2.32757 78.1539 1.81033 81.789 1.81033C86.203 1.81033 90.3573 2.32757 93.9924 3.62068C97.6274 4.91378 100.484 6.4655 102.561 8.79309C104.638 11.1207 105.677 13.7069 105.677 16.8103V31.2931C105.677 32.069 105.936 32.8448 106.455 33.3621C106.975 33.8793 107.754 34.1379 108.533 34.1379C109.312 34.1379 110.091 33.8793 110.869 33.6207C111.648 33.3621 112.168 32.8448 112.687 32.3276L116.062 38.7931C114.764 40.0862 113.206 40.8621 111.129 41.6379C109.052 42.4138 106.715 42.6724 104.378 42.6724C101.263 42.6724 98.666 41.8965 96.3292 40.3448C94.252 38.7931 92.9538 36.7241 92.6942 34.3965L92.4345 33.6207C91.3959 35.431 89.838 36.9827 87.7608 38.2758C85.6837 39.5689 83.3468 40.6034 80.7504 41.3793C78.1539 42.1552 75.2978 42.4138 72.182 42.4138C68.5469 42.931 65.4312 42.6724 62.8347 41.6379ZM84.1258 33.3621C86.4626 32.5862 88.2801 31.5517 89.5784 30.2586C90.8766 28.9655 91.6556 27.4138 91.9152 25.6034V24.0517L79.1925 25.3448C75.2978 25.6034 72.4417 26.1207 70.6241 26.8965C68.8066 27.6724 67.768 28.9655 67.768 30.5172C67.768 31.8103 68.5469 32.8448 70.1048 33.6207C71.6627 34.3965 73.7399 34.6552 76.596 34.6552C79.4521 34.3965 81.789 34.1379 84.1258 33.3621Z" fill="#072B31"/>
<path d="M106.975 2.84482H120.996L134.238 32.3276L147.739 2.84482H161.76L142.546 41.8965H125.929L106.975 2.84482Z" fill="#072B31"/>
<path d="M165.395 8.27587C165.395 4.65518 167.992 2.06897 171.627 2.06897C175.262 2.06897 177.599 4.65518 177.599 8.27587C177.599 11.8966 175.002 14.2241 171.627 14.2241C167.992 14.2241 165.395 11.6379 165.395 8.27587ZM177.08 8.27587C177.08 5.17242 174.743 2.84483 171.627 2.84483C168.511 2.84483 166.174 5.17242 166.174 8.27587C166.174 11.3793 168.511 13.7069 171.627 13.7069C174.743 13.7069 177.08 11.3793 177.08 8.27587ZM168.771 4.13794H172.146C173.704 4.13794 174.743 5.17242 174.743 6.46552C174.743 7.24138 174.223 7.75862 173.704 8.27587C174.223 8.27587 174.483 8.79311 174.483 9.31035V12.4138H173.185V9.82759C173.185 9.31035 172.925 9.05173 172.406 9.05173H169.809V12.4138H168.771V4.13794ZM171.887 7.75863C172.925 7.75863 173.704 7.24138 173.704 6.46552C173.704 5.68966 172.925 5.17242 171.887 5.17242H170.069V7.75863H171.887Z" fill="#072B31"/>
<path d="M194.736 21.7242C194.736 25.0862 195.515 28.1897 197.332 31.0345C199.15 33.8793 201.486 35.9483 204.602 37.2414C207.718 38.7931 211.093 39.569 214.988 39.569C219.142 39.569 223.037 38.5345 226.672 36.7242C230.048 34.9138 232.384 32.3276 233.683 29.2242L237.318 30.2586C236.539 32.8448 234.721 35.1724 232.644 36.9828C230.307 39.0517 227.711 40.6035 224.595 41.6379C221.479 42.6724 218.104 43.1897 214.728 43.1897C210.055 43.1897 205.9 42.1552 202.265 40.3448C198.63 38.5345 195.774 35.9483 193.697 32.5862C191.62 29.2242 190.581 25.6035 190.581 21.4655C190.581 17.3276 191.62 13.7069 193.697 10.3448C195.774 6.98277 198.63 4.39657 202.265 2.58622C206.16 1.29312 210.314 0.258636 214.988 0.258636C218.364 0.258636 221.739 0.775878 224.855 1.81036C227.97 2.84484 230.567 4.39657 232.904 6.46553C235.241 8.5345 236.798 10.6035 237.577 13.1897L233.683 14.4828C232.384 11.3793 230.048 8.79312 226.672 6.98277C223.297 5.17243 219.402 4.13795 214.988 4.13795C211.093 4.13795 207.718 4.91381 204.602 6.46553C201.486 8.01726 199.15 10.0862 197.332 12.6724C195.515 15.2586 194.736 18.3621 194.736 21.7242Z" fill="#072B31"/>
<path d="M253.416 42.1552C250.56 41.3793 248.483 40.0862 246.925 38.2759C245.367 36.7241 244.588 34.6552 244.588 32.069C244.588 29.7414 245.367 27.6724 246.665 26.1207C248.223 24.3103 250.56 23.0172 253.676 21.7241C256.791 20.431 261.205 19.6552 266.658 19.1379L284.314 17.5862C285.093 17.5862 285.872 17.3276 286.132 16.8103C286.651 16.2931 286.91 15.7759 286.91 15C286.91 12.6724 286.132 10.8621 284.833 9.05172C283.275 7.5 281.458 6.2069 278.861 5.17241C276.265 4.39655 273.409 3.87931 270.033 3.87931C266.918 3.87931 263.802 4.39655 260.946 5.17241C258.09 5.94828 255.493 7.24138 253.676 8.7931C251.598 10.3448 250.3 12.1552 249.521 13.9655L246.405 11.8966C247.184 9.82759 249.002 7.75862 251.339 5.94828C253.676 4.13793 256.532 2.58621 259.647 1.55172C263.023 0.517241 266.398 0 270.033 0C273.928 0 277.563 0.517241 280.679 1.81034C283.795 3.10345 286.391 4.65517 288.209 6.98276C290.026 9.31034 290.805 11.8966 290.805 15.2586V34.9138C290.805 36.2069 291.065 37.5 291.844 38.2759C292.623 39.0517 293.661 39.569 294.7 39.569C295.738 39.569 296.777 39.3103 297.556 38.7931C298.595 38.2759 299.114 37.5 299.633 36.7241L301.97 39.3103C301.191 40.6035 300.152 41.3793 298.595 42.1552C297.037 42.931 295.479 43.1897 293.921 43.1897C291.584 43.1897 289.767 42.4138 288.468 40.8621C287.17 39.3103 286.391 37.5 286.391 35.1724V32.5862C285.353 34.6552 283.535 36.4655 281.198 38.2759C278.861 39.8276 276.265 41.1207 272.889 42.1552C269.774 42.931 266.398 43.4483 263.023 43.4483C259.647 43.4483 256.272 43.1897 253.416 42.1552ZM275.746 37.7586C279.121 36.4655 281.977 34.6552 283.795 32.069C285.872 29.7414 286.651 26.8966 286.91 24.0517V20.9483L266.658 22.7586C260.167 23.2759 255.753 24.569 252.897 26.1207C250.04 27.6724 248.742 29.7414 248.742 32.069C248.742 34.6552 250.04 36.4655 252.637 37.7586C255.233 39.0517 259.128 39.8276 263.802 39.8276C268.216 39.569 272.111 39.0517 275.746 37.7586Z" fill="#072B31"/>
<path d="M307.423 1.81036H311.058L311.317 10.3448C312.616 7.2414 314.952 4.65519 317.809 2.84484C320.924 1.0345 324.3 0.258636 328.454 0.258636C333.128 0.258636 337.022 1.29312 340.138 3.62071C343.254 5.68967 345.331 8.79312 346.629 12.6724C347.668 9.05174 350.005 5.94829 353.38 3.87933C356.756 1.55174 360.65 0.517257 365.324 0.517257C369.219 0.517257 372.594 1.29312 375.71 2.84484C378.566 4.39657 380.903 6.72415 382.72 9.56898C384.278 12.4138 385.317 16.0345 385.317 20.1724V42.1552H381.422V20.1724C381.422 16.8104 380.643 13.9655 379.345 11.3793C378.047 9.05174 376.229 7.24139 373.633 5.94829C371.296 4.65519 368.44 4.13795 365.324 4.13795C361.949 4.13795 359.092 4.65519 356.496 5.94829C353.9 7.24139 351.822 9.05174 350.524 11.3793C349.226 13.7069 348.447 16.8104 348.447 20.1724V41.8966H344.552V20.1724C344.552 16.8104 343.773 13.7069 342.475 11.3793C341.177 9.05174 339.359 7.24139 337.022 5.94829C334.686 4.65519 331.829 4.13795 328.714 4.13795C325.598 4.13795 322.742 4.91381 320.145 6.20691C317.549 7.50002 315.472 9.56898 314.173 11.8966C312.875 14.4828 312.096 17.3276 312.096 20.9483V41.8966H308.202V1.81036H307.423Z" fill="#072B31"/>
<path d="M394.404 1.81035H398.04L398.299 11.8966C400.117 8.27586 402.713 5.68966 406.868 3.62069C410.762 1.55172 415.436 0.517242 420.629 0.517242C425.562 0.517242 429.976 1.55173 433.871 3.36207C437.766 5.17241 440.881 7.75862 442.959 11.1207C445.295 14.4828 446.334 18.1034 446.334 22.2414C446.334 26.3793 445.295 30 442.959 33.3621C440.622 36.7241 437.766 39.3103 433.871 41.1207C429.976 42.931 425.562 43.9655 420.629 43.9655C415.436 43.9655 410.762 42.931 406.868 40.8621C402.973 38.7931 400.117 35.9483 398.559 32.5862V60.7759H394.664V1.81035H394.404ZM431.534 37.2414C434.91 35.6897 437.506 33.6207 439.324 31.0345C441.141 28.4483 442.18 25.3448 442.18 21.9828C442.18 18.6207 441.141 15.5172 439.324 12.931C437.506 10.3448 434.91 8.27586 431.534 6.72414C428.159 5.17241 424.524 4.39655 420.369 4.39655C416.215 4.39655 412.58 5.17241 409.204 6.72414C405.829 8.27586 403.233 10.3448 401.415 12.931C399.597 15.5172 398.559 18.6207 398.559 22.2414C398.559 25.8621 399.597 28.7069 401.415 31.2931C403.233 33.8793 405.829 35.9483 409.204 37.5C412.58 39.0517 416.215 39.8276 420.369 39.8276C424.264 39.569 428.159 38.7931 431.534 37.2414Z" fill="#072B31"/>
<path d="M511.765 1.81036H515.4L515.66 9.8276C516.958 6.72415 518.776 4.39657 521.372 2.84484C523.969 1.0345 526.825 0.258636 529.94 0.258636C532.537 0.258636 534.874 0.775878 536.951 1.81036C539.028 2.84484 540.846 4.39657 542.404 6.20691C543.961 8.01726 544.74 10.0862 545 12.4138L541.365 13.7069C541.105 10.8621 539.807 8.5345 537.47 6.72415C535.133 4.91381 532.537 3.87933 529.421 3.87933C526.825 3.87933 524.488 4.65519 522.411 5.94829C520.333 7.50002 518.776 9.56898 517.477 12.1552C516.179 14.7414 515.66 17.8448 515.66 21.2069V41.8966H511.765V1.81036Z" fill="#072B31"/>
<path d="M494.109 36.9828C489.955 38.5345 485.541 39.569 480.867 39.569C476.713 39.569 472.818 38.7931 469.443 37.5C466.067 36.2069 463.211 34.1379 461.134 31.8103C459.057 29.2241 457.758 26.6379 457.499 23.2759H502.678C502.678 23.0172 502.678 22.7586 502.678 22.5C502.678 22.2414 502.678 21.9828 502.678 21.7241C502.678 17.5862 501.639 13.9655 499.562 10.6034C497.485 7.24138 494.628 4.91379 490.993 2.84483C487.358 1.03448 483.204 0 478.53 0C473.597 0 469.443 1.03448 465.548 2.84483C461.653 4.65517 458.797 7.24138 456.72 10.6034C454.643 13.9655 453.604 17.5862 453.604 21.7241C453.604 25.8621 454.643 29.4828 456.98 32.8448C459.316 36.2069 462.432 38.7931 466.586 40.6035C470.741 42.4138 475.415 43.4483 480.607 43.4483C485.8 43.4483 490.993 42.4138 495.667 40.6035C497.744 39.8276 499.562 38.7931 501.12 37.7586L499.042 34.6552C497.744 35.431 495.927 36.2069 494.109 36.9828ZM460.874 11.3793C462.692 9.05172 465.288 7.24138 468.144 5.94828C471.26 4.65517 474.636 3.87931 478.271 3.87931C481.906 3.87931 485.021 4.39655 488.137 5.68965C491.253 6.98276 493.59 8.7931 495.407 11.1207C497.225 13.4483 498.263 16.2931 498.523 19.1379H457.499C458.018 16.5517 459.057 13.7069 460.874 11.3793Z" fill="#072B31"/>
</svg>
