<?xml version="1.0" encoding="utf-8"?>
<!-- Generator: Adobe Illustrator 24.3.0, SVG Export Plug-In . SVG Version: 6.00 Build 0)  -->
<svg version="1.1" id="Layer_1" xmlns="http://www.w3.org/2000/svg" xmlns:xlink="http://www.w3.org/1999/xlink" x="0px" y="0px"
	 viewBox="0 0 269.6 40" style="enable-background:new 0 0 269.6 40;" xml:space="preserve">
<g>
	<path style="fill:#D2F200;" d="M55.5,0l-10,30.5l1.1,6.3h-0.9L35.9,6.7c-1.4-4-5.1-6.7-9.3-6.7h-6.4c-4.3,0-8.1,2.7-9.4,6.8L0,40
		c0,0,9.6-7.8,24-7.8v-1.8l-7.4-3.1l5.8-17.8l-1.1-6.4h0.9l9.9,30.2c1.3,4,5.1,6.7,9.4,6.7h6.4c4.3,0,8.1-2.7,9.4-6.8L68.1,0H55.5z"
		/>
	<path style="fill:#FFFFFF;" d="M90.6,13.9h3.8l0.6,2.9c0.4-1,1.2-1.8,2.1-2.4c0.9-0.6,2-0.9,3.3-0.9c1.3,0,2.5,0.3,3.4,0.7
		c0.9,0.5,1.6,1.2,2.1,2.1c0.5,0.9,0.8,2,0.8,3.3v7.1h-4.3v-6.6c0-0.8-0.2-1.4-0.4-2c-0.3-0.5-0.7-0.9-1.3-1.3
		c-0.5-0.3-1.2-0.4-2-0.4c-0.7,0-1.4,0.2-2,0.4c-0.5,0.3-0.9,0.8-1.3,1.4c-0.3,0.5-0.5,1.2-0.5,2v6.5h-4.3V13.9z"/>
	<path style="fill:#FFFFFF;" d="M111.2,26.7c-0.9-0.3-1.5-0.7-2-1.3c-0.5-0.5-0.7-1.2-0.7-2c0-0.8,0.3-1.4,0.9-2
		c0.6-0.6,1.4-1.1,2.5-1.5c1.1-0.4,2.4-0.7,3.9-0.9l4.2-0.4c0.3,0,0.6-0.1,0.8-0.3c0.2-0.2,0.3-0.3,0.3-0.5c0-0.3-0.2-0.5-0.5-0.8
		c-0.3-0.3-0.8-0.4-1.3-0.5c-0.6,0-1.2-0.1-1.8-0.1c-0.8,0-1.6,0.1-2.4,0.3c-0.9,0.2-1.5,0.4-2.1,0.8c-0.6,0.3-1.1,0.7-1.5,1
		l-2.5-1.8c0.4-0.6,1.1-1.1,2-1.6c0.9-0.5,1.9-0.9,3.1-1.1c1.2-0.3,2.3-0.4,3.5-0.4c1.5,0,2.8,0.2,4,0.6s2.1,0.9,2.8,1.7
		c0.7,0.8,1,1.6,1,2.6v4.8c0,0.3,0.1,0.5,0.3,0.7c0.2,0.2,0.4,0.3,0.7,0.3c0.3,0,0.5-0.1,0.8-0.2c0.3-0.1,0.4-0.3,0.6-0.4l1.1,2.1
		c-0.4,0.4-0.9,0.7-1.6,0.9c-0.7,0.3-1.4,0.3-2.2,0.3c-1,0-1.9-0.3-2.6-0.8c-0.7-0.5-1.1-1.2-1.2-2l-0.1-0.3
		c-0.3,0.6-0.9,1.1-1.5,1.5c-0.7,0.4-1.4,0.8-2.3,1c-0.9,0.3-1.8,0.3-2.8,0.3C113.1,27.1,112.1,27,111.2,26.7z M118.2,24
		c0.8-0.3,1.4-0.6,1.8-1c0.4-0.4,0.7-0.9,0.8-1.5v-0.5l-4.2,0.4c-1.3,0.1-2.2,0.3-2.8,0.5c-0.6,0.3-0.9,0.7-0.9,1.2
		c0,0.4,0.3,0.8,0.8,1c0.5,0.3,1.2,0.3,2.1,0.3C116.7,24.3,117.4,24.2,118.2,24z"/>
	<path style="fill:#FFFFFF;" d="M125.7,13.9h4.6l4.3,9.7l4.4-9.7h4.6l-6.3,12.9h-5.5L125.7,13.9z"/>
	<path style="fill:#FFFFFF;" d="M144.9,15.7c0-1.2,0.9-2,2-2s2,0.9,2,2s-0.9,2-2,2C145.7,17.7,144.9,16.8,144.9,15.7z M148.7,15.7
		c0-1-0.8-1.8-1.8-1.8c-1,0-1.8,0.8-1.8,1.8s0.8,1.8,1.8,1.8C148,17.5,148.7,16.7,148.7,15.7z M146,14.4h1.1c0.5,0,0.9,0.3,0.9,0.8
		c0,0.3-0.2,0.4-0.3,0.6c0.2,0,0.3,0.2,0.3,0.3v1h-0.4v-0.9c0-0.2-0.1-0.3-0.3-0.3h-0.9v1.1H146V14.4z M147,15.5
		c0.3,0,0.6-0.2,0.6-0.4c0-0.3-0.3-0.4-0.6-0.4h-0.6v0.9H147z"/>
	<path style="fill:#FFFFFF;" d="M154.5,20.1c0,1.1,0.3,2.1,0.9,3.1c0.6,0.9,1.4,1.6,2.4,2c1,0.5,2.1,0.8,3.4,0.8
		c1.4,0,2.6-0.3,3.8-0.9c1.1-0.6,1.9-1.4,2.3-2.5l1.2,0.3c-0.3,0.9-0.9,1.6-1.5,2.2c-0.8,0.7-1.6,1.2-2.6,1.5
		c-1,0.3-2.1,0.5-3.2,0.5c-1.5,0-2.9-0.3-4.1-0.9s-2.1-1.4-2.8-2.6c-0.7-1.1-1-2.3-1-3.7s0.3-2.6,1-3.7c0.7-1.1,1.6-2,2.8-2.6
		c1.3-0.4,2.6-0.8,4.2-0.8c1.1,0,2.2,0.2,3.2,0.5c1,0.3,1.9,0.9,2.6,1.5c0.8,0.7,1.3,1.4,1.5,2.2l-1.3,0.4c-0.4-1-1.2-1.9-2.3-2.5
		c-1.1-0.6-2.4-0.9-3.8-0.9c-1.3,0-2.4,0.3-3.4,0.8c-1,0.5-1.8,1.2-2.4,2C154.8,18,154.5,19,154.5,20.1z"/>
	<path style="fill:#FFFFFF;" d="M173.8,26.9c-0.9-0.3-1.6-0.7-2.1-1.3c-0.5-0.5-0.8-1.2-0.8-2c0-0.8,0.3-1.4,0.7-2
		c0.5-0.6,1.3-1,2.3-1.4c1-0.4,2.5-0.7,4.3-0.9l5.8-0.5c0.3,0,0.5-0.1,0.6-0.3c0.2-0.2,0.3-0.3,0.3-0.6c0-0.8-0.3-1.4-0.7-2
		c-0.5-0.5-1.1-0.9-2-1.3c-0.9-0.3-1.8-0.4-2.9-0.4c-1,0-2,0.2-3,0.4c-0.9,0.3-1.8,0.7-2.4,1.2c-0.7,0.5-1.1,1.1-1.4,1.7l-1-0.7
		c0.3-0.7,0.9-1.4,1.6-2c0.8-0.6,1.7-1.1,2.7-1.4c1.1-0.3,2.2-0.5,3.4-0.5c1.3,0,2.5,0.2,3.5,0.6c1,0.4,1.9,0.9,2.5,1.7
		c0.6,0.8,0.9,1.6,0.9,2.7v6.5c0,0.4,0.1,0.9,0.3,1.1c0.3,0.3,0.6,0.4,0.9,0.4s0.7-0.1,0.9-0.3c0.3-0.2,0.5-0.4,0.7-0.7l0.8,0.9
		c-0.3,0.4-0.6,0.7-1.1,0.9c-0.5,0.3-1,0.3-1.5,0.3c-0.8,0-1.4-0.3-1.8-0.8c-0.4-0.5-0.7-1.1-0.7-1.9v-0.9c-0.3,0.7-0.9,1.3-1.7,1.9
		c-0.8,0.5-1.6,0.9-2.7,1.3c-1,0.3-2.1,0.4-3.2,0.4C175.8,27.3,174.7,27.2,173.8,26.9z M181.1,25.4c1.1-0.4,2-1,2.6-1.9
		c0.7-0.8,0.9-1.7,1-2.6v-1l-6.7,0.6c-2.1,0.2-3.6,0.6-4.5,1.1c-0.9,0.5-1.4,1.2-1.4,2c0,0.9,0.4,1.4,1.3,1.9
		c0.9,0.4,2.1,0.7,3.7,0.7C178.7,26,179.9,25.8,181.1,25.4z"/>
	<path style="fill:#FFFFFF;" d="M191.5,13.6h1.2l0.1,2.8c0.4-1,1.2-1.9,2.1-2.5c1-0.6,2.1-0.9,3.5-0.9c1.5,0,2.8,0.3,3.8,1.1
		c1,0.7,1.7,1.7,2.1,3c0.3-1.2,1.1-2.2,2.2-2.9c1.1-0.8,2.4-1.1,3.9-1.1c1.3,0,2.4,0.3,3.4,0.8c0.9,0.5,1.7,1.3,2.3,2.2
		c0.5,0.9,0.9,2.1,0.9,3.5v7.2h-1.3v-7.2c0-1.1-0.3-2-0.7-2.9c-0.4-0.8-1-1.4-1.9-1.8c-0.8-0.4-1.7-0.6-2.7-0.6
		c-1.1,0-2,0.2-2.9,0.6c-0.9,0.4-1.5,1-2,1.8c-0.4,0.8-0.7,1.8-0.7,2.9v7.1h-1.3v-7.1c0-1.1-0.3-2.1-0.7-2.9c-0.4-0.8-1-1.4-1.8-1.8
		c-0.8-0.4-1.7-0.6-2.7-0.6c-1,0-2,0.3-2.8,0.7c-0.9,0.4-1.5,1.1-2,1.9c-0.4,0.9-0.7,1.8-0.7,3v6.9h-1.3V13.6H191.5z"/>
	<path style="fill:#FFFFFF;" d="M220.1,13.6h1.2l0.1,3.3c0.6-1.2,1.4-2,2.8-2.7c1.3-0.7,2.8-1,4.5-1c1.6,0,3.1,0.3,4.3,0.9
		c1.3,0.6,2.3,1.4,3,2.6c0.8,1.1,1.1,2.3,1.1,3.7c0,1.4-0.3,2.6-1.1,3.7c-0.8,1.1-1.7,2-3,2.6c-1.3,0.6-2.7,0.9-4.3,0.9
		c-1.7,0-3.2-0.3-4.5-1c-1.3-0.7-2.2-1.6-2.7-2.7V33h-1.3L220.1,13.6L220.1,13.6z M232.3,25.3c1.1-0.5,2-1.2,2.6-2
		c0.6-0.9,0.9-1.9,0.9-3c0-1.1-0.3-2.1-0.9-3c-0.6-0.9-1.5-1.5-2.6-2c-1.1-0.5-2.3-0.8-3.7-0.8c-1.4,0-2.6,0.3-3.7,0.8
		c-1.1,0.5-2,1.2-2.6,2c-0.6,0.9-0.9,1.9-0.9,3.1c0,1.2,0.3,2.1,0.9,3c0.6,0.9,1.4,1.5,2.6,2c1.1,0.5,2.3,0.8,3.7,0.8
		C229.9,26,231.2,25.8,232.3,25.3z"/>
	<path style="fill:#FFFFFF;" d="M258.6,13.6h1.2l0.1,2.6c0.4-1,1-1.8,1.9-2.3c0.9-0.6,1.8-0.9,2.8-0.9c0.9,0,1.6,0.2,2.3,0.5
		c0.7,0.3,1.3,0.9,1.8,1.4c0.5,0.6,0.8,1.3,0.9,2l-1.2,0.4c-0.1-0.9-0.5-1.7-1.3-2.3c-0.8-0.6-1.6-0.9-2.6-0.9
		c-0.9,0-1.6,0.3-2.3,0.7c-0.7,0.5-1.2,1.2-1.6,2c-0.4,0.9-0.6,1.9-0.6,3v6.8h-1.3V13.6z"/>
	<path style="fill:#FFFFFF;" d="M252.8,25.2c-1.4,0.5-2.8,0.9-4.3,0.9c-1.4,0-2.6-0.3-3.8-0.7c-1.1-0.4-2-1.1-2.7-1.9
		c-0.7-0.9-1.1-1.7-1.2-2.8h14.8c0-0.1,0-0.2,0-0.3s0-0.2,0-0.3c0-1.4-0.3-2.6-1-3.7c-0.7-1.1-1.6-1.9-2.8-2.6
		c-1.2-0.6-2.6-0.9-4.1-0.9c-1.6,0-3,0.3-4.3,0.9c-1.3,0.6-2.2,1.4-2.9,2.6c-0.7,1.1-1,2.3-1,3.7c0,1.4,0.3,2.6,1.1,3.7
		c0.8,1.1,1.8,2,3.2,2.6c1.4,0.6,2.9,0.9,4.6,0.9c1.7,0,3.4-0.3,4.9-0.9c0.7-0.3,1.3-0.6,1.8-0.9l-0.7-1
		C254,24.7,253.4,24.9,252.8,25.2z M241.9,16.7c0.6-0.8,1.4-1.4,2.4-1.8c1-0.4,2.1-0.7,3.3-0.7c1.2,0,2.2,0.2,3.2,0.6
		c1,0.4,1.8,1,2.4,1.8c0.6,0.8,0.9,1.7,1,2.6h-13.5C241,18.4,241.3,17.5,241.9,16.7z"/>
</g>
</svg>
