<svg width="110" height="61" viewBox="0 0 110 61" fill="none" xmlns="http://www.w3.org/2000/svg">
<path d="M82.875 0L68 45.73L69.615 55.25H68.34L53.635 10.03C51.595 4.08 45.985 0 39.695 0H30.175C23.8 0 18.105 4.08 16.15 10.2L0 60.01C0 60.01 14.365 48.28 35.87 48.28V45.645L24.82 40.97L33.49 14.195L31.875 4.59H33.15L47.855 49.895C49.81 55.93 55.505 60.01 61.88 60.01H71.4C77.775 60.01 83.47 55.93 85.425 49.81L101.575 0H82.875Z" fill="#072B31"/>
<path d="M104.72 5.525C104.295 5.27 103.87 4.93 103.615 4.505C103.36 4.08 103.19 3.57 103.19 2.975C103.19 2.38 103.36 1.87 103.615 1.445C103.87 1.02 104.21 0.68 104.72 0.425C105.145 0.17 105.74 0 106.25 0C106.845 0 107.355 0.0850013 107.865 0.340001C108.29 0.595001 108.715 0.935005 108.97 1.36001C109.225 1.78501 109.395 2.295 109.395 2.89C109.395 3.485 109.225 3.995 108.97 4.42C108.715 4.845 108.375 5.185 107.865 5.44C107.44 5.695 106.845 5.78 106.25 5.78C105.655 5.78 105.145 5.78 104.72 5.525ZM107.695 5.27C108.12 5.015 108.46 4.76001 108.715 4.33501C108.97 3.91001 109.055 3.485 109.055 2.975C109.055 2.465 108.97 2.04 108.715 1.615C108.46 1.19 108.12 0.935003 107.695 0.680003C107.27 0.425003 106.845 0.340001 106.335 0.340001C105.825 0.340001 105.315 0.425003 104.89 0.680003C104.465 0.935003 104.125 1.19 103.87 1.615C103.615 2.04 103.53 2.465 103.53 2.975C103.53 3.485 103.615 3.91001 103.87 4.33501C104.125 4.76001 104.465 5.015 104.89 5.27C105.315 5.525 105.825 5.61001 106.335 5.61001C106.845 5.61001 107.27 5.525 107.695 5.27ZM104.89 0.935005H106.59C106.845 0.935005 107.1 1.02 107.27 1.105C107.44 1.19 107.61 1.36 107.78 1.53C107.865 1.7 107.95 1.955 107.95 2.125C107.95 2.295 107.95 2.46501 107.865 2.63501C107.78 2.80501 107.695 2.89 107.525 2.975C107.61 2.975 107.695 3.06 107.78 3.145C107.865 3.23 107.865 3.31501 107.865 3.48501V4.93H106.93V3.74C106.93 3.655 106.93 3.57001 106.845 3.48501C106.76 3.40001 106.675 3.4 106.59 3.4H105.825V4.93H104.89V0.935005ZM106.42 2.72C106.59 2.72 106.76 2.635 106.845 2.55C106.93 2.465 107.015 2.38001 107.015 2.21001C107.015 2.04001 106.93 1.955 106.845 1.87C106.76 1.785 106.59 1.7 106.42 1.7H105.825V2.72H106.42Z" fill="#072B31"/>
</svg>
