<svg version="1.1" id="Layer_1" xmlns="http://www.w3.org/2000/svg" xmlns:xlink="http://www.w3.org/1999/xlink" x="0px" y="0px"
	 viewBox="0 0 545 61" style="enable-background:new 0 0 545 61;" xml:space="preserve">
<style type="text/css">
	.st0{fill:#072B31;}
</style>
<path class="st0" d="M0,2.8h11.4l1.8,8.8c1.3-3.1,3.6-5.4,6.5-7.2S26,1.8,29.9,1.8c3.9,0,7.5,0.8,10.4,2.1c2.9,1.6,4.9,3.6,6.5,6.5
	c1.6,2.8,2.3,6.2,2.3,10.1v21.7H35.8V22c0-2.3-0.5-4.4-1.3-5.9c-0.8-1.6-2.1-2.8-3.9-3.9c-1.6-0.8-3.6-1.3-6-1.3
	c-2.1,0-4.2,0.5-6,1.3c-1.6,1-2.9,2.3-3.9,4.1c-1,1.6-1.6,3.6-1.6,5.9v19.7H0V2.8z"/>
<path class="st0" d="M62.8,41.6c-2.6-1-4.7-2.1-6.2-3.9c-1.6-1.6-2.1-3.6-2.1-5.9s0.8-4.4,2.6-6.2c1.8-1.8,4.2-3.4,7.5-4.7
	c3.4-1.3,7.3-2.1,11.9-2.6l12.7-1.3c1,0,1.8-0.3,2.3-0.8c0.5-0.5,0.8-1,0.8-1.6c0-0.8-0.5-1.6-1.6-2.3c-1-0.8-2.3-1.3-3.9-1.6
	c-1.8,0-3.6-0.3-5.5-0.3c-2.3,0-4.9,0.3-7.3,0.8c-2.6,0.5-4.7,1.3-6.5,2.3c-1.8,1-3.4,2.1-4.4,3.1l-7.5-5.4c1.3-1.8,3.4-3.4,6-4.9
	c2.6-1.6,5.7-2.6,9.3-3.4c3.6-0.8,7-1.3,10.6-1.3c4.4,0,8.6,0.5,12.2,1.8c3.6,1.3,6.5,2.8,8.6,5.2c2.1,2.3,3.1,4.9,3.1,8v14.5
	c0,0.8,0.3,1.6,0.8,2.1c0.5,0.5,1.3,0.8,2.1,0.8s1.6-0.3,2.3-0.5c0.8-0.3,1.3-0.8,1.8-1.3l3.4,6.5c-1.3,1.3-2.9,2.1-4.9,2.8
	c-2.1,0.8-4.4,1-6.8,1c-3.1,0-5.7-0.8-8-2.3c-2.1-1.6-3.4-3.6-3.6-5.9l-0.3-0.8c-1,1.8-2.6,3.4-4.7,4.7c-2.1,1.3-4.4,2.3-7,3.1
	c-2.6,0.8-5.5,1-8.6,1C68.5,42.9,65.4,42.7,62.8,41.6z M84.1,33.4c2.3-0.8,4.2-1.8,5.5-3.1c1.3-1.3,2.1-2.8,2.3-4.7v-1.6l-12.7,1.3
	c-3.9,0.3-6.8,0.8-8.6,1.6c-1.8,0.8-2.9,2.1-2.9,3.6c0,1.3,0.8,2.3,2.3,3.1c1.6,0.8,3.6,1,6.5,1C79.5,34.4,81.8,34.1,84.1,33.4z"/>
<path class="st0" d="M107,2.8h14l13.2,29.5l13.5-29.5h14l-19.2,39.1h-16.6L107,2.8z"/>
<path class="st0" d="M165.4,8.3c0-3.6,2.6-6.2,6.2-6.2s6,2.6,6,6.2c0,3.6-2.6,5.9-6,5.9C168,14.2,165.4,11.6,165.4,8.3z M177.1,8.3
	c0-3.1-2.3-5.4-5.5-5.4s-5.5,2.3-5.5,5.4c0,3.1,2.3,5.4,5.5,5.4S177.1,11.4,177.1,8.3z M168.8,4.1h3.4c1.6,0,2.6,1,2.6,2.3
	c0,0.8-0.5,1.3-1,1.8c0.5,0,0.8,0.5,0.8,1v3.1h-1.3V9.8c0-0.5-0.3-0.8-0.8-0.8h-2.6v3.4h-1V4.1z M171.9,7.8c1,0,1.8-0.5,1.8-1.3
	s-0.8-1.3-1.8-1.3h-1.8v2.6H171.9z"/>
<path class="st0" d="M194.7,21.7c0,3.4,0.8,6.5,2.6,9.3c1.8,2.8,4.2,4.9,7.3,6.2c3.1,1.6,6.5,2.3,10.4,2.3c4.2,0,8-1,11.7-2.8
	c3.4-1.8,5.7-4.4,7-7.5l3.6,1c-0.8,2.6-2.6,4.9-4.7,6.7c-2.3,2.1-4.9,3.6-8,4.7c-3.1,1-6.5,1.6-9.9,1.6c-4.7,0-8.8-1-12.5-2.8
	c-3.6-1.8-6.5-4.4-8.6-7.8c-2.1-3.4-3.1-7-3.1-11.1c0-4.1,1-7.8,3.1-11.1c2.1-3.4,4.9-5.9,8.6-7.8c3.9-1.3,8-2.3,12.7-2.3
	c3.4,0,6.8,0.5,9.9,1.6c3.1,1,5.7,2.6,8,4.7c2.3,2.1,3.9,4.1,4.7,6.7l-3.9,1.3c-1.3-3.1-3.6-5.7-7-7.5c-3.4-1.8-7.3-2.8-11.7-2.8
	c-3.9,0-7.3,0.8-10.4,2.3c-3.1,1.6-5.5,3.6-7.3,6.2C195.5,15.3,194.7,18.4,194.7,21.7z"/>
<path class="st0" d="M253.4,42.2c-2.9-0.8-4.9-2.1-6.5-3.9c-1.6-1.6-2.3-3.6-2.3-6.2c0-2.3,0.8-4.4,2.1-5.9c1.6-1.8,3.9-3.1,7-4.4
	c3.1-1.3,7.5-2.1,13-2.6l17.7-1.6c0.8,0,1.6-0.3,1.8-0.8c0.5-0.5,0.8-1,0.8-1.8c0-2.3-0.8-4.1-2.1-5.9c-1.6-1.6-3.4-2.8-6-3.9
	c-2.6-0.8-5.5-1.3-8.8-1.3c-3.1,0-6.2,0.5-9.1,1.3c-2.9,0.8-5.5,2.1-7.3,3.6c-2.1,1.6-3.4,3.4-4.2,5.2l-3.1-2.1
	c0.8-2.1,2.6-4.1,4.9-5.9c2.3-1.8,5.2-3.4,8.3-4.4C263,0.5,266.4,0,270,0c3.9,0,7.5,0.5,10.6,1.8c3.1,1.3,5.7,2.8,7.5,5.2
	c1.8,2.3,2.6,4.9,2.6,8.3v19.7c0,1.3,0.3,2.6,1,3.4c0.8,0.8,1.8,1.3,2.9,1.3c1,0,2.1-0.3,2.9-0.8c1-0.5,1.6-1.3,2.1-2.1l2.3,2.6
	c-0.8,1.3-1.8,2.1-3.4,2.8c-1.6,0.8-3.1,1-4.7,1c-2.3,0-4.2-0.8-5.5-2.3c-1.3-1.6-2.1-3.4-2.1-5.7v-2.6c-1,2.1-2.9,3.9-5.2,5.7
	c-2.3,1.6-4.9,2.8-8.3,3.9c-3.1,0.8-6.5,1.3-9.9,1.3C259.6,43.4,256.3,43.2,253.4,42.2z M275.7,37.8c3.4-1.3,6.2-3.1,8-5.7
	c2.1-2.3,2.9-5.2,3.1-8v-3.1l-20.3,1.8c-6.5,0.5-10.9,1.8-13.8,3.4c-2.9,1.6-4.2,3.6-4.2,5.9c0,2.6,1.3,4.4,3.9,5.7
	c2.6,1.3,6.5,2.1,11.2,2.1C268.2,39.6,272.1,39.1,275.7,37.8z"/>
<path class="st0" d="M307.4,1.8h3.6l0.3,8.5c1.3-3.1,3.6-5.7,6.5-7.5c3.1-1.8,6.5-2.6,10.6-2.6c4.7,0,8.6,1,11.7,3.4
	c3.1,2.1,5.2,5.2,6.5,9.1c1-3.6,3.4-6.7,6.8-8.8c3.4-2.3,7.3-3.4,11.9-3.4c3.9,0,7.3,0.8,10.4,2.3c2.9,1.6,5.2,3.9,7,6.7
	c1.6,2.8,2.6,6.5,2.6,10.6v22h-3.9v-22c0-3.4-0.8-6.2-2.1-8.8c-1.3-2.3-3.1-4.1-5.7-5.4c-2.3-1.3-5.2-1.8-8.3-1.8
	c-3.4,0-6.2,0.5-8.8,1.8s-4.7,3.1-6,5.4c-1.3,2.3-2.1,5.4-2.1,8.8v21.7h-3.9V20.2c0-3.4-0.8-6.5-2.1-8.8c-1.3-2.3-3.1-4.1-5.5-5.4
	c-2.3-1.3-5.2-1.8-8.3-1.8c-3.1,0-6,0.8-8.6,2.1c-2.6,1.3-4.7,3.4-6,5.7c-1.3,2.6-2.1,5.4-2.1,9.1v20.9h-3.9V1.8H307.4z"/>
<path class="st0" d="M394.4,1.8h3.6l0.3,10.1c1.8-3.6,4.4-6.2,8.6-8.3c3.9-2.1,8.6-3.1,13.8-3.1c4.9,0,9.3,1,13.2,2.8s7,4.4,9.1,7.8
	c2.3,3.4,3.4,7,3.4,11.1c0,4.1-1,7.8-3.4,11.1c-2.3,3.4-5.2,5.9-9.1,7.8c-3.9,1.8-8.3,2.8-13.2,2.8c-5.2,0-9.9-1-13.8-3.1
	c-3.9-2.1-6.8-4.9-8.3-8.3v28.2h-3.9v-59H394.4z M431.5,37.2c3.4-1.6,6-3.6,7.8-6.2c1.8-2.6,2.9-5.7,2.9-9.1c0-3.4-1-6.5-2.9-9.1
	c-1.8-2.6-4.4-4.7-7.8-6.2c-3.4-1.6-7-2.3-11.2-2.3c-4.2,0-7.8,0.8-11.2,2.3c-3.4,1.6-6,3.6-7.8,6.2c-1.8,2.6-2.9,5.7-2.9,9.3
	s1,6.5,2.9,9.1c1.8,2.6,4.4,4.7,7.8,6.2c3.4,1.6,7,2.3,11.2,2.3C424.3,39.6,428.2,38.8,431.5,37.2z"/>
<path class="st0" d="M511.8,1.8h3.6l0.3,8c1.3-3.1,3.1-5.4,5.7-7c2.6-1.8,5.5-2.6,8.6-2.6c2.6,0,4.9,0.5,7,1.6
	c2.1,1,3.9,2.6,5.5,4.4c1.6,1.8,2.3,3.9,2.6,6.2l-3.6,1.3c-0.3-2.8-1.6-5.2-3.9-7c-2.3-1.8-4.9-2.8-8-2.8c-2.6,0-4.9,0.8-7,2.1
	c-2.1,1.6-3.6,3.6-4.9,6.2c-1.3,2.6-1.8,5.7-1.8,9.1v20.7h-3.9V1.8z"/>
<path class="st0" d="M494.1,37c-4.2,1.6-8.6,2.6-13.2,2.6c-4.2,0-8-0.8-11.4-2.1c-3.4-1.3-6.2-3.4-8.3-5.7c-2.1-2.6-3.4-5.2-3.6-8.5
	h45.2c0-0.3,0-0.5,0-0.8s0-0.5,0-0.8c0-4.1-1-7.8-3.1-11.1c-2.1-3.4-4.9-5.7-8.6-7.8C487.4,1,483.2,0,478.5,0c-4.9,0-9.1,1-13,2.8
	c-3.9,1.8-6.8,4.4-8.8,7.8c-2.1,3.4-3.1,7-3.1,11.1c0,4.1,1,7.8,3.4,11.1c2.3,3.4,5.5,5.9,9.6,7.8c4.2,1.8,8.8,2.8,14,2.8
	c5.2,0,10.4-1,15.1-2.8c2.1-0.8,3.9-1.8,5.5-2.8l-2.1-3.1C497.7,35.4,495.9,36.2,494.1,37z M460.9,11.4c1.8-2.3,4.4-4.1,7.3-5.4
	c3.1-1.3,6.5-2.1,10.1-2.1s6.8,0.5,9.9,1.8c3.1,1.3,5.5,3.1,7.3,5.4c1.8,2.3,2.9,5.2,3.1,8h-41C458,16.6,459.1,13.7,460.9,11.4z"/>
</svg>
