<svg version="1.1" id="Layer_1" xmlns="http://www.w3.org/2000/svg" xmlns:xlink="http://www.w3.org/1999/xlink" x="0px" y="0px"
	 width="37.308px" height="43.024px" viewBox="0 0 37.308 43.024" enable-background="new 0 0 37.308 43.024" xml:space="preserve">
<path id="logo-full.svg" d="M37.308,31.577V17.752C37.308,5.29,31.302,0,19.229,0C10.924,0,2.428,3.073,2.428,12.451h9.646
	c0-3.744,3.961-5.117,7.218-5.117c4.408,0,7.857,1.201,7.857,4.957C27.149,22.525,0,10.24,0,29.877
	c0,8.036,5.366,13.146,14.054,13.146c2.97,0.014,5.871-0.893,8.305-2.594V34.79c-1.428,0.626-2.977,0.93-4.535,0.889
	c-4.089,0-6.964-1.361-6.964-5.986c0-8.527,12.649-4.075,16.099-10.732h0.191v12.617H37.308L37.308,31.577z"/>
</svg>
