<svg version="1.1" id="Layer_1" xmlns="http://www.w3.org/2000/svg" xmlns:xlink="http://www.w3.org/1999/xlink" x="0px" y="0px"
	 width="14px" height="14px" viewBox="1.5 0 14 14" enable-background="new 1.5 0 14 14" xml:space="preserve">
<g>
	<path d="M11.636,0H5.363C3.233,0,1.5,1.733,1.5,3.863v6.272C1.5,12.266,3.233,14,5.363,14h6.272c2.13,0,3.864-1.734,3.864-3.864
		V3.863C15.5,1.733,13.766,0,11.636,0z M14.258,10.136c0,1.446-1.176,2.622-2.622,2.622H5.363c-1.445,0-2.622-1.176-2.622-2.622
		V3.863c0-1.445,1.176-2.622,2.622-2.622h6.272c1.446,0,2.622,1.176,2.622,2.622V10.136L14.258,10.136z"/>
	<path d="M8.5,3.393C6.51,3.393,4.892,5.011,4.892,7c0,1.988,1.618,3.607,3.607,3.607c1.989,0,3.608-1.619,3.608-3.607
		C12.107,5.011,10.488,3.393,8.5,3.393z M8.5,9.364C7.195,9.364,6.134,8.304,6.134,7c0-1.305,1.061-2.366,2.365-2.366
		S10.865,5.695,10.865,7C10.865,8.304,9.804,9.364,8.5,9.364z"/>
	<path d="M12.258,2.339c-0.238,0-0.474,0.097-0.643,0.267c-0.17,0.169-0.268,0.404-0.268,0.645c0,0.24,0.098,0.475,0.268,0.645
		c0.169,0.168,0.404,0.267,0.643,0.267c0.24,0,0.475-0.098,0.645-0.267c0.17-0.17,0.267-0.405,0.267-0.645
		c0-0.24-0.097-0.475-0.267-0.645C12.734,2.436,12.498,2.339,12.258,2.339z"/>
</g>
</svg>
